<svg width="400" height="150" xmlns="http://www.w3.org/2000/svg">
  <defs>
    <style>
      .board { fill: #4a5d4a; }
      .text { fill: white; font-family: monospace; font-weight: bold; }
      .header { fill: #ffffff; font-size: 14px; }
      .score { fill: #ffffff; font-size: 16px; }
      .label { fill: #cccccc; font-size: 10px; }
    </style>
  </defs>
  <rect width="400" height="150" class="board"/>
  <rect x="10" y="10" width="380" height="80" fill="#333" stroke="#666" stroke-width="1"/>
  <text x="20" y="30" class="text header">P</text>
  <text x="60" y="30" class="text header">1 2 3 4 5 6 7 8 9 10</text>
  <text x="320" y="30" class="text header">R H E</text>
  <rect x="15" y="35" width="60" height="20" fill="#222"/>
  <text x="20" y="48" class="text score">HOME</text>
  <text x="90" y="48" class="text score">0 1 0 1</text>
  <text x="320" y="48" class="text score">1 2 0</text>
  <rect x="15" y="55" width="60" height="20" fill="#222"/>
  <text x="20" y="68" class="text score">GUEST</text>
  <text x="90" y="68" class="text score">0 0 0 1</text>
  <text x="320" y="68" class="text score">1 3 0</text>
  <rect x="10" y="100" width="380" height="40" fill="#222" stroke="#666" stroke-width="1"/>
  <text x="20" y="115" class="text header">AT BAT</text>
  <text x="120" y="115" class="text header">BALLS</text>
  <text x="180" y="115" class="text header">STRIKES</text>
  <text x="250" y="115" class="text header">OUTS</text>
  <text x="320" y="115" class="text header">H E</text>
  <circle cx="130" cy="130" r="4" fill="#666"/>
  <circle cx="140" cy="130" r="4" fill="#666"/>
  <circle cx="150" cy="130" r="4" fill="#666"/>
  <circle cx="190" cy="130" r="4" fill="#666"/>
  <circle cx="200" cy="130" r="4" fill="#666"/>
  <circle cx="260" cy="130" r="4" fill="#666"/>
  <circle cx="270" cy="130" r="4" fill="#666"/>
  <text x="20" y="135" class="label">Cricket Score Display - C Language Console App</text>
</svg>
